# xmcd
#
# Track frame offsets: 
#        150
#        13662
#        28693
#        41251
#        53505
#        66860
#        80624
#        94902
#        107204
#        118697
#        131778
#        144347
#        157038
#        170888
#        184311
#        197668
#        212266
#        224754
#
# Disc length: 3170 seconds
#
# Revision: 1
# Processed by: cddbd v1.5.2PL0 Copyright (c) Steve Scherf et al.
# Submitted via: ExactAudioCopy v0.95b2
#
DISCID=0a0c6012
DTITLE=Ida Cox - The Essential Disc 1
DYEAR=2001
DGENRE=Blues
TTITLE0=Pleading Blues
TTITLE1=Down the Road Bound Blues
TTITLE2=Weary Way Blues
TTITLE3=Moanin' Groanin' Blues
TTITLE4=Last Time Blues
TTITLE5=Worried Any How Blues
TTITLE6=I'm So Glad
TTITLE7=Fogyism
TTITLE8=Hard Oh Lawd
TTITLE9=Blue Kentucky Blues
TTITLE10=I Got the Blues for Rampart Street
TTITLE11=Mean Lovin' Man Blues
TTITLE12=Seven Day Blues
TTITLE13=So Soon This Morning
TTITLE14=How Long Daddy, How Long
TTITLE15=Mojo Hand Blues
TTITLE16=Lost Man Blues
TTITLE17=You Got to Swing and Sway
EXTD=
EXTT0=
EXTT1=
EXTT2=
EXTT3=
EXTT4=
EXTT5=
EXTT6=
EXTT7=
EXTT8=
EXTT9=
EXTT10=
EXTT11=
EXTT12=
EXTT13=
EXTT14=
EXTT15=
EXTT16=
EXTT17=
PLAYORDER=
